<svg viewBox="0 0 200 200" xmlns="http://www.w3.org/2000/svg">
  <defs>
    <linearGradient id="dg1" x1="0%" y1="0%" x2="100%" y2="100%">
      <stop offset="0%" stop-color="#5B9BD5"/>
      <stop offset="100%" stop-color="#1F4E79"/>
    </linearGradient>
    <linearGradient id="dg2" x1="0%" y1="0%" x2="100%" y2="100%">
      <stop offset="0%" stop-color="#2E75B6"/>
      <stop offset="100%" stop-color="#1B3A5C"/>
    </linearGradient>
    <linearGradient id="dg3" x1="50%" y1="0%" x2="50%" y2="100%">
      <stop offset="0%" stop-color="#4A90C4"/>
      <stop offset="100%" stop-color="#1A3F6B"/>
    </linearGradient>
  </defs>
  <!-- Outer left petal -->
  <path d="M60,30 C30,30 20,70 20,100 C20,150 50,180 80,180 C80,180 60,150 60,100 C60,60 60,30 60,30Z" fill="url(#dg1)"/>
  <!-- Center petal -->
  <path d="M80,20 C65,20 55,50 55,100 C55,150 75,185 100,185 C125,185 145,150 145,100 C145,50 135,20 120,20 C110,20 100,50 100,100 C100,140 90,170 80,170 C70,140 80,100 80,60 C80,40 80,20 80,20Z" fill="url(#dg2)" opacity="0.9"/>
  <!-- Right petal -->
  <path d="M140,30 C140,30 140,60 140,100 C140,150 120,180 120,180 C150,180 180,150 180,100 C180,70 170,30 140,30Z" fill="url(#dg3)" opacity="0.85"/>
</svg>
